<mxfile host="app.diagrams.net" modified="2022-12-28T07:04:00.644Z" agent="5.0 (Windows NT 10.0; Win64; x64) AppleWebKit/537.36 (KHTML, like Gecko) Chrome/108.0.0.0 Safari/537.36" etag="4rlCdORQC7Ti0frnhgB_" version="20.7.4" type="github">
  <diagram id="RHAZrWQLRDkT96S_gRnY" name="Диаграмма2 || Доставка Суши">
    <mxGraphModel dx="2390" dy="1327" grid="0" gridSize="10" guides="1" tooltips="1" connect="1" arrows="1" fold="1" page="0" pageScale="1" pageWidth="827" pageHeight="1169" math="0" shadow="0">
      <root>
        <mxCell id="0" />
        <mxCell id="1" parent="0" />
        <mxCell id="8JBFVGu5TRE_8UB1eVMB-11" value="" style="endArrow=none;dashed=1;html=1;strokeWidth=1;rounded=0;startArrow=none;fillColor=#fad7ac;strokeColor=#b46504;" parent="1" target="-lnSjmOPSwvC8dsKI3XS-112" edge="1">
          <mxGeometry width="50" height="50" relative="1" as="geometry">
            <mxPoint x="544" y="1140" as="sourcePoint" />
            <mxPoint x="543.7499999999998" y="792" as="targetPoint" />
          </mxGeometry>
        </mxCell>
        <mxCell id="8JBFVGu5TRE_8UB1eVMB-4" value="" style="endArrow=none;dashed=1;html=1;strokeWidth=1;rounded=0;startArrow=none;fillColor=#fad7ac;strokeColor=#b46504;" parent="1" source="-lnSjmOPSwvC8dsKI3XS-112" target="-lnSjmOPSwvC8dsKI3XS-79" edge="1">
          <mxGeometry width="50" height="50" relative="1" as="geometry">
            <mxPoint x="548.93" y="1070.06" as="sourcePoint" />
            <mxPoint x="548.4394073377233" y="27.06" as="targetPoint" />
          </mxGeometry>
        </mxCell>
        <mxCell id="8JBFVGu5TRE_8UB1eVMB-5" value="" style="endArrow=none;dashed=1;html=1;strokeWidth=1;rounded=0;startArrow=none;fillColor=#fad7ac;strokeColor=#b46504;" parent="1" source="-lnSjmOPSwvC8dsKI3XS-85" target="-lnSjmOPSwvC8dsKI3XS-80" edge="1">
          <mxGeometry width="50" height="50" relative="1" as="geometry">
            <mxPoint x="1376.43" y="971.06" as="sourcePoint" />
            <mxPoint x="1376.43" y="27.06" as="targetPoint" />
          </mxGeometry>
        </mxCell>
        <mxCell id="-lnSjmOPSwvC8dsKI3XS-1" value="Незарегистрированный&lt;br&gt;пользователь" style="html=1;rounded=0;fillColor=#fad7ac;strokeColor=#b46504;" parent="1" vertex="1">
          <mxGeometry x="60" y="60" width="150" height="40" as="geometry" />
        </mxCell>
        <mxCell id="-lnSjmOPSwvC8dsKI3XS-2" value="" style="endArrow=none;dashed=1;html=1;strokeWidth=1;rounded=0;startArrow=none;fillColor=#fad7ac;strokeColor=#b46504;" parent="1" target="-lnSjmOPSwvC8dsKI3XS-1" edge="1">
          <mxGeometry width="50" height="50" relative="1" as="geometry">
            <mxPoint x="135" y="1130" as="sourcePoint" />
            <mxPoint x="134.07999999999998" y="123" as="targetPoint" />
          </mxGeometry>
        </mxCell>
        <mxCell id="-lnSjmOPSwvC8dsKI3XS-3" value="" style="shape=umlActor;verticalLabelPosition=bottom;verticalAlign=top;html=1;rounded=0;fillColor=#dae8fc;strokeColor=#6c8ebf;" parent="1" vertex="1">
          <mxGeometry x="119.5" width="30" height="60" as="geometry" />
        </mxCell>
        <mxCell id="-lnSjmOPSwvC8dsKI3XS-4" value="Каталог" style="html=1;rounded=0;fillColor=#dae8fc;strokeColor=#6c8ebf;" parent="1" vertex="1">
          <mxGeometry x="270" y="60" width="135" height="40" as="geometry" />
        </mxCell>
        <mxCell id="-lnSjmOPSwvC8dsKI3XS-5" value="" style="endArrow=none;dashed=1;html=1;strokeWidth=1;rounded=0;startArrow=none;fillColor=#fad7ac;strokeColor=#b46504;" parent="1" target="-lnSjmOPSwvC8dsKI3XS-4" edge="1">
          <mxGeometry width="50" height="50" relative="1" as="geometry">
            <mxPoint x="338" y="1143" as="sourcePoint" />
            <mxPoint x="337.07999999999987" y="123" as="targetPoint" />
          </mxGeometry>
        </mxCell>
        <mxCell id="-lnSjmOPSwvC8dsKI3XS-13" value="" style="html=1;points=[];perimeter=orthogonalPerimeter;rounded=0;fillColor=#fad7ac;strokeColor=#b46504;" parent="1" vertex="1">
          <mxGeometry x="331.25" y="126" width="10" height="54" as="geometry" />
        </mxCell>
        <mxCell id="-lnSjmOPSwvC8dsKI3XS-14" value="" style="endArrow=classic;html=1;rounded=0;fillColor=#fad7ac;strokeColor=#b46504;" parent="1" edge="1">
          <mxGeometry width="50" height="50" relative="1" as="geometry">
            <mxPoint x="138.25" y="126" as="sourcePoint" />
            <mxPoint x="331.75" y="126" as="targetPoint" />
          </mxGeometry>
        </mxCell>
        <mxCell id="-lnSjmOPSwvC8dsKI3XS-15" value="Выбор категории" style="edgeLabel;html=1;align=center;verticalAlign=middle;resizable=0;points=[];rounded=0;labelBackgroundColor=none;" parent="-lnSjmOPSwvC8dsKI3XS-14" vertex="1" connectable="0">
          <mxGeometry x="-0.2175" relative="1" as="geometry">
            <mxPoint x="19" y="-9" as="offset" />
          </mxGeometry>
        </mxCell>
        <mxCell id="-lnSjmOPSwvC8dsKI3XS-16" value="" style="endArrow=classic;html=1;rounded=0;fillColor=#fad7ac;strokeColor=#b46504;dashed=1;exitX=0.075;exitY=1.006;exitDx=0;exitDy=0;exitPerimeter=0;" parent="1" edge="1" target="sTfGjPoin-vk9VNCby7z-12" source="-lnSjmOPSwvC8dsKI3XS-13">
          <mxGeometry width="50" height="50" relative="1" as="geometry">
            <mxPoint x="332.6700000000001" y="190.00200000000004" as="sourcePoint" />
            <mxPoint x="138.25" y="190.00200000000004" as="targetPoint" />
          </mxGeometry>
        </mxCell>
        <mxCell id="-lnSjmOPSwvC8dsKI3XS-17" value="Вывод товаров по категории" style="edgeLabel;html=1;align=center;verticalAlign=middle;resizable=0;points=[];rounded=0;labelBackgroundColor=none;" parent="-lnSjmOPSwvC8dsKI3XS-16" vertex="1" connectable="0">
          <mxGeometry x="-0.2175" relative="1" as="geometry">
            <mxPoint x="-17" y="-9" as="offset" />
          </mxGeometry>
        </mxCell>
        <mxCell id="-lnSjmOPSwvC8dsKI3XS-18" value="Список заказов" style="html=1;rounded=0;fillColor=#fad7ac;strokeColor=#b46504;" parent="1" vertex="1">
          <mxGeometry x="477" y="60" width="135" height="40" as="geometry" />
        </mxCell>
        <mxCell id="-lnSjmOPSwvC8dsKI3XS-19" value="" style="endArrow=none;dashed=1;html=1;strokeWidth=1;rounded=0;startArrow=none;fillColor=#fad7ac;strokeColor=#b46504;" parent="1" source="-lnSjmOPSwvC8dsKI3XS-79" target="-lnSjmOPSwvC8dsKI3XS-18" edge="1">
          <mxGeometry width="50" height="50" relative="1" as="geometry">
            <mxPoint x="545" y="1143" as="sourcePoint" />
            <mxPoint x="544.0799999999999" y="123" as="targetPoint" />
          </mxGeometry>
        </mxCell>
        <mxCell id="-lnSjmOPSwvC8dsKI3XS-22" value="Оператор" style="html=1;rounded=0;fillColor=#fad7ac;strokeColor=#b46504;" parent="1" vertex="1">
          <mxGeometry x="891" y="60" width="135" height="40" as="geometry" />
        </mxCell>
        <mxCell id="-lnSjmOPSwvC8dsKI3XS-23" value="Администратор" style="html=1;rounded=0;fillColor=#fad7ac;strokeColor=#b46504;" parent="1" vertex="1">
          <mxGeometry x="684" y="60" width="135" height="40" as="geometry" />
        </mxCell>
        <mxCell id="-lnSjmOPSwvC8dsKI3XS-24" value="" style="endArrow=none;dashed=1;html=1;strokeWidth=1;rounded=0;startArrow=none;fillColor=#fad7ac;strokeColor=#b46504;" parent="1" target="-lnSjmOPSwvC8dsKI3XS-23" edge="1">
          <mxGeometry width="50" height="50" relative="1" as="geometry">
            <mxPoint x="752" y="1143" as="sourcePoint" />
            <mxPoint x="751.0799999999999" y="123" as="targetPoint" />
          </mxGeometry>
        </mxCell>
        <mxCell id="-lnSjmOPSwvC8dsKI3XS-25" value="" style="html=1;points=[];perimeter=orthogonalPerimeter;rounded=0;fillColor=#fad7ac;strokeColor=#b46504;" parent="1" vertex="1">
          <mxGeometry x="130" y="360" width="10" height="36" as="geometry" />
        </mxCell>
        <mxCell id="-lnSjmOPSwvC8dsKI3XS-26" value="" style="html=1;points=[];perimeter=orthogonalPerimeter;rounded=0;fillColor=#fad7ac;strokeColor=#b46504;" parent="1" vertex="1">
          <mxGeometry x="333" y="360" width="10" height="36" as="geometry" />
        </mxCell>
        <mxCell id="-lnSjmOPSwvC8dsKI3XS-27" value="" style="endArrow=classic;html=1;rounded=0;fillColor=#fad7ac;strokeColor=#b46504;" parent="1" edge="1">
          <mxGeometry width="50" height="50" relative="1" as="geometry">
            <mxPoint x="140" y="360" as="sourcePoint" />
            <mxPoint x="333.5" y="360" as="targetPoint" />
          </mxGeometry>
        </mxCell>
        <mxCell id="-lnSjmOPSwvC8dsKI3XS-28" value="Создание заказа и ввод данных" style="edgeLabel;html=1;align=center;verticalAlign=middle;resizable=0;points=[];rounded=0;labelBackgroundColor=none;" parent="-lnSjmOPSwvC8dsKI3XS-27" vertex="1" connectable="0">
          <mxGeometry x="-0.2175" relative="1" as="geometry">
            <mxPoint x="23" y="-10" as="offset" />
          </mxGeometry>
        </mxCell>
        <mxCell id="-lnSjmOPSwvC8dsKI3XS-30" value="" style="endArrow=classic;html=1;rounded=0;fillColor=#fad7ac;strokeColor=#b46504;" parent="1" edge="1">
          <mxGeometry width="50" height="50" relative="1" as="geometry">
            <mxPoint x="343" y="395.65999999999985" as="sourcePoint" />
            <mxPoint x="540.5" y="395.65999999999985" as="targetPoint" />
          </mxGeometry>
        </mxCell>
        <mxCell id="-lnSjmOPSwvC8dsKI3XS-31" value="Добавление информации о товаре" style="edgeLabel;html=1;align=center;verticalAlign=middle;resizable=0;points=[];rounded=0;labelBackgroundColor=none;" parent="-lnSjmOPSwvC8dsKI3XS-30" vertex="1" connectable="0">
          <mxGeometry x="-0.2175" relative="1" as="geometry">
            <mxPoint x="23" y="-9" as="offset" />
          </mxGeometry>
        </mxCell>
        <mxCell id="-lnSjmOPSwvC8dsKI3XS-33" value="" style="endArrow=classic;html=1;rounded=0;fillColor=#fad7ac;strokeColor=#b46504;" parent="1" edge="1">
          <mxGeometry width="50" height="50" relative="1" as="geometry">
            <mxPoint x="550" y="397.9999999999998" as="sourcePoint" />
            <mxPoint x="747.5" y="398.0000000000002" as="targetPoint" />
          </mxGeometry>
        </mxCell>
        <mxCell id="-lnSjmOPSwvC8dsKI3XS-34" value="Уведомление о новом заказе" style="edgeLabel;html=1;align=center;verticalAlign=middle;resizable=0;points=[];rounded=0;labelBackgroundColor=none;" parent="-lnSjmOPSwvC8dsKI3XS-33" vertex="1" connectable="0">
          <mxGeometry x="-0.2175" relative="1" as="geometry">
            <mxPoint x="23" y="-9" as="offset" />
          </mxGeometry>
        </mxCell>
        <mxCell id="-lnSjmOPSwvC8dsKI3XS-35" value="" style="endArrow=none;dashed=1;html=1;strokeWidth=1;rounded=0;startArrow=none;fillColor=#fad7ac;strokeColor=#b46504;" parent="1" source="8JBFVGu5TRE_8UB1eVMB-1" target="-lnSjmOPSwvC8dsKI3XS-22" edge="1">
          <mxGeometry width="50" height="50" relative="1" as="geometry">
            <mxPoint x="959" y="1143" as="sourcePoint" />
            <mxPoint x="958.1599999999996" y="123" as="targetPoint" />
          </mxGeometry>
        </mxCell>
        <mxCell id="-lnSjmOPSwvC8dsKI3XS-38" value="" style="endArrow=classic;html=1;rounded=0;fillColor=#fad7ac;strokeColor=#b46504;entryX=0.136;entryY=0.032;entryDx=0;entryDy=0;entryPerimeter=0;" parent="1" edge="1">
          <mxGeometry width="50" height="50" relative="1" as="geometry">
            <mxPoint x="553.43" y="458.13" as="sourcePoint" />
            <mxPoint x="958.79" y="460.338" as="targetPoint" />
          </mxGeometry>
        </mxCell>
        <mxCell id="-lnSjmOPSwvC8dsKI3XS-39" value="Уведомление о новом заказе" style="edgeLabel;html=1;align=center;verticalAlign=middle;resizable=0;points=[];rounded=0;labelBackgroundColor=none;" parent="-lnSjmOPSwvC8dsKI3XS-38" vertex="1" connectable="0">
          <mxGeometry x="-0.2175" relative="1" as="geometry">
            <mxPoint x="38" y="-9" as="offset" />
          </mxGeometry>
        </mxCell>
        <mxCell id="-lnSjmOPSwvC8dsKI3XS-40" value="" style="endArrow=classic;html=1;rounded=0;fillColor=#fad7ac;strokeColor=#b46504;entryX=0.898;entryY=0.051;entryDx=0;entryDy=0;entryPerimeter=0;dashed=1;exitX=0.16;exitY=0.999;exitDx=0;exitDy=0;exitPerimeter=0;" parent="1" source="sTfGjPoin-vk9VNCby7z-32" target="-lnSjmOPSwvC8dsKI3XS-42" edge="1">
          <mxGeometry width="50" height="50" relative="1" as="geometry">
            <mxPoint x="957.4299999999998" y="522.966" as="sourcePoint" />
            <mxPoint x="561.93" y="557.13" as="targetPoint" />
          </mxGeometry>
        </mxCell>
        <mxCell id="-lnSjmOPSwvC8dsKI3XS-41" value="Обсуждение всех нюансов и подтверждение заказа" style="edgeLabel;html=1;align=center;verticalAlign=middle;resizable=0;points=[];rounded=0;labelBackgroundColor=none;" parent="-lnSjmOPSwvC8dsKI3XS-40" vertex="1" connectable="0">
          <mxGeometry x="-0.2175" relative="1" as="geometry">
            <mxPoint x="-85" y="-9" as="offset" />
          </mxGeometry>
        </mxCell>
        <mxCell id="-lnSjmOPSwvC8dsKI3XS-42" value="" style="html=1;points=[];perimeter=orthogonalPerimeter;rounded=0;fillColor=#fad7ac;strokeColor=#b46504;" parent="1" vertex="1">
          <mxGeometry x="130" y="500.07" width="10" height="30" as="geometry" />
        </mxCell>
        <mxCell id="-lnSjmOPSwvC8dsKI3XS-46" value="" style="endArrow=classic;html=1;rounded=0;fillColor=#fad7ac;strokeColor=#b46504;" parent="1" source="-lnSjmOPSwvC8dsKI3XS-42" edge="1" target="sTfGjPoin-vk9VNCby7z-33">
          <mxGeometry width="50" height="50" relative="1" as="geometry">
            <mxPoint x="710.9499999999999" y="638.126" as="sourcePoint" />
            <mxPoint x="958.2299999999999" y="558.7499999999999" as="targetPoint" />
          </mxGeometry>
        </mxCell>
        <mxCell id="-lnSjmOPSwvC8dsKI3XS-47" value="Оплата" style="edgeLabel;html=1;align=center;verticalAlign=middle;resizable=0;points=[];rounded=0;labelBackgroundColor=none;" parent="-lnSjmOPSwvC8dsKI3XS-46" vertex="1" connectable="0">
          <mxGeometry x="-0.2175" relative="1" as="geometry">
            <mxPoint x="87" y="-8" as="offset" />
          </mxGeometry>
        </mxCell>
        <mxCell id="-lnSjmOPSwvC8dsKI3XS-49" value="" style="endArrow=classic;html=1;rounded=0;fillColor=#ffe6cc;strokeColor=#B46504;entryX=0.935;entryY=0.068;entryDx=0;entryDy=0;entryPerimeter=0;dashed=1;" parent="1" source="8JBFVGu5TRE_8UB1eVMB-1" target="sTfGjPoin-vk9VNCby7z-36" edge="1">
          <mxGeometry width="50" height="50" relative="1" as="geometry">
            <mxPoint x="957.43" y="561.26" as="sourcePoint" />
            <mxPoint x="553.7399999999996" y="561.26" as="targetPoint" />
          </mxGeometry>
        </mxCell>
        <mxCell id="-lnSjmOPSwvC8dsKI3XS-50" value="Обновление информации о заказе" style="edgeLabel;html=1;align=center;verticalAlign=middle;resizable=0;points=[];rounded=0;labelBackgroundColor=none;" parent="-lnSjmOPSwvC8dsKI3XS-49" vertex="1" connectable="0">
          <mxGeometry x="-0.2175" relative="1" as="geometry">
            <mxPoint x="-40" y="-9" as="offset" />
          </mxGeometry>
        </mxCell>
        <mxCell id="-lnSjmOPSwvC8dsKI3XS-52" value="" style="endArrow=classic;html=1;rounded=0;fillColor=#fad7ac;strokeColor=#b46504;dashed=1;exitX=0.118;exitY=0.989;exitDx=0;exitDy=0;exitPerimeter=0;" parent="1" edge="1" target="sTfGjPoin-vk9VNCby7z-22" source="sTfGjPoin-vk9VNCby7z-21">
          <mxGeometry width="50" height="50" relative="1" as="geometry">
            <mxPoint x="745.2399999999998" y="466.2519999999997" as="sourcePoint" />
            <mxPoint x="550" y="466" as="targetPoint" />
          </mxGeometry>
        </mxCell>
        <mxCell id="-lnSjmOPSwvC8dsKI3XS-53" value="Просмотр информации о заказе&lt;br&gt;для контроля персонала" style="edgeLabel;html=1;align=center;verticalAlign=middle;resizable=0;points=[];rounded=0;labelBackgroundColor=none;" parent="-lnSjmOPSwvC8dsKI3XS-52" vertex="1" connectable="0">
          <mxGeometry x="-0.2175" relative="1" as="geometry">
            <mxPoint x="-19" y="-14" as="offset" />
          </mxGeometry>
        </mxCell>
        <mxCell id="-lnSjmOPSwvC8dsKI3XS-54" value="Повар" style="html=1;rounded=0;fillColor=#fad7ac;strokeColor=#b46504;" parent="1" vertex="1">
          <mxGeometry x="1098" y="60" width="135" height="40" as="geometry" />
        </mxCell>
        <mxCell id="-lnSjmOPSwvC8dsKI3XS-55" value="Курьер" style="html=1;rounded=0;fillColor=#fad7ac;strokeColor=#b46504;" parent="1" vertex="1">
          <mxGeometry x="1305" y="60" width="135" height="40" as="geometry" />
        </mxCell>
        <mxCell id="-lnSjmOPSwvC8dsKI3XS-56" value="" style="html=1;points=[];perimeter=orthogonalPerimeter;rounded=0;fillColor=#fad7ac;strokeColor=#b46504;" parent="1" vertex="1">
          <mxGeometry x="130" y="600" width="10" height="20" as="geometry" />
        </mxCell>
        <mxCell id="-lnSjmOPSwvC8dsKI3XS-57" value="" style="endArrow=classic;html=1;rounded=0;fillColor=#fad7ac;strokeColor=#b46504;dashed=1;" parent="1" source="sTfGjPoin-vk9VNCby7z-36" target="-lnSjmOPSwvC8dsKI3XS-56" edge="1">
          <mxGeometry width="50" height="50" relative="1" as="geometry">
            <mxPoint x="548.4299999999996" y="627.06" as="sourcePoint" />
            <mxPoint x="151.41000000000003" y="511.896" as="targetPoint" />
            <Array as="points" />
          </mxGeometry>
        </mxCell>
        <mxCell id="-lnSjmOPSwvC8dsKI3XS-58" value="Чек на почту, если произошла оплата" style="edgeLabel;html=1;align=center;verticalAlign=middle;resizable=0;points=[];rounded=0;labelBackgroundColor=none;" parent="-lnSjmOPSwvC8dsKI3XS-57" vertex="1" connectable="0">
          <mxGeometry x="-0.2175" relative="1" as="geometry">
            <mxPoint x="-31" y="-7" as="offset" />
          </mxGeometry>
        </mxCell>
        <mxCell id="-lnSjmOPSwvC8dsKI3XS-59" value="" style="html=1;points=[];perimeter=orthogonalPerimeter;rounded=0;fillColor=#fad7ac;strokeColor=#b46504;" parent="1" vertex="1">
          <mxGeometry x="750.43" y="630" width="10" height="40" as="geometry" />
        </mxCell>
        <mxCell id="-lnSjmOPSwvC8dsKI3XS-60" value="" style="html=1;points=[];perimeter=orthogonalPerimeter;rounded=0;fillColor=#fad7ac;strokeColor=#b46504;" parent="1" vertex="1">
          <mxGeometry x="540.25" y="630" width="10" height="40" as="geometry" />
        </mxCell>
        <mxCell id="-lnSjmOPSwvC8dsKI3XS-61" value="" style="endArrow=classic;html=1;rounded=0;fillColor=#fad7ac;strokeColor=#b46504;entryX=1.046;entryY=0.992;entryDx=0;entryDy=0;entryPerimeter=0;dashed=1;" parent="1" source="-lnSjmOPSwvC8dsKI3XS-59" target="-lnSjmOPSwvC8dsKI3XS-60" edge="1">
          <mxGeometry width="50" height="50" relative="1" as="geometry">
            <mxPoint x="966.43" y="566.7239999999999" as="sourcePoint" />
            <mxPoint x="563.7600000000001" y="566.7239999999999" as="targetPoint" />
          </mxGeometry>
        </mxCell>
        <mxCell id="-lnSjmOPSwvC8dsKI3XS-62" value="Просмотр информации &lt;br&gt;о заказе и о работе оператора" style="edgeLabel;html=1;align=center;verticalAlign=middle;resizable=0;points=[];rounded=0;labelBackgroundColor=none;" parent="-lnSjmOPSwvC8dsKI3XS-61" vertex="1" connectable="0">
          <mxGeometry x="-0.2175" relative="1" as="geometry">
            <mxPoint x="-23" y="-15" as="offset" />
          </mxGeometry>
        </mxCell>
        <mxCell id="-lnSjmOPSwvC8dsKI3XS-63" value="" style="endArrow=classic;html=1;rounded=0;fillColor=#fad7ac;strokeColor=#b46504;exitX=1.046;exitY=0.027;exitDx=0;exitDy=0;exitPerimeter=0;" parent="1" source="-lnSjmOPSwvC8dsKI3XS-60" target="-lnSjmOPSwvC8dsKI3XS-59" edge="1">
          <mxGeometry width="50" height="50" relative="1" as="geometry">
            <mxPoint x="570.93" y="609.06" as="sourcePoint" />
            <mxPoint x="750.9299999999997" y="609.06" as="targetPoint" />
          </mxGeometry>
        </mxCell>
        <mxCell id="-lnSjmOPSwvC8dsKI3XS-64" value="Уведомление об обновлении &lt;br&gt;информации о заказе" style="edgeLabel;html=1;align=center;verticalAlign=middle;resizable=0;points=[];rounded=0;labelBackgroundColor=none;" parent="-lnSjmOPSwvC8dsKI3XS-63" vertex="1" connectable="0">
          <mxGeometry x="-0.2175" relative="1" as="geometry">
            <mxPoint x="23" y="-15" as="offset" />
          </mxGeometry>
        </mxCell>
        <mxCell id="-lnSjmOPSwvC8dsKI3XS-65" value="" style="html=1;points=[];perimeter=orthogonalPerimeter;rounded=0;fillColor=#fad7ac;strokeColor=#b46504;" parent="1" vertex="1">
          <mxGeometry x="540.25" y="687.06" width="10" height="39" as="geometry" />
        </mxCell>
        <mxCell id="-lnSjmOPSwvC8dsKI3XS-66" value="" style="endArrow=none;dashed=1;html=1;strokeWidth=1;rounded=0;startArrow=none;fillColor=#fad7ac;strokeColor=#b46504;" parent="1" target="-lnSjmOPSwvC8dsKI3XS-54" edge="1">
          <mxGeometry width="50" height="50" relative="1" as="geometry">
            <mxPoint x="1165" y="1143" as="sourcePoint" />
            <mxPoint x="1164.9099999999999" y="123" as="targetPoint" />
          </mxGeometry>
        </mxCell>
        <mxCell id="-lnSjmOPSwvC8dsKI3XS-67" value="" style="endArrow=none;dashed=1;html=1;strokeWidth=1;rounded=0;startArrow=none;fillColor=#fad7ac;strokeColor=#b46504;" parent="1" source="-lnSjmOPSwvC8dsKI3XS-80" target="-lnSjmOPSwvC8dsKI3XS-55" edge="1">
          <mxGeometry width="50" height="50" relative="1" as="geometry">
            <mxPoint x="1372" y="1143" as="sourcePoint" />
            <mxPoint x="1371.9099999999999" y="123" as="targetPoint" />
          </mxGeometry>
        </mxCell>
        <mxCell id="-lnSjmOPSwvC8dsKI3XS-68" value="" style="html=1;points=[];perimeter=orthogonalPerimeter;rounded=0;fillColor=#fad7ac;strokeColor=#b46504;" parent="1" vertex="1">
          <mxGeometry x="1164.43" y="687.06" width="10" height="39" as="geometry" />
        </mxCell>
        <mxCell id="-lnSjmOPSwvC8dsKI3XS-69" value="" style="endArrow=classic;html=1;rounded=0;fillColor=#fad7ac;strokeColor=#b46504;exitX=1.1;exitY=0.005;exitDx=0;exitDy=0;exitPerimeter=0;" parent="1" source="-lnSjmOPSwvC8dsKI3XS-65" target="-lnSjmOPSwvC8dsKI3XS-68" edge="1">
          <mxGeometry width="50" height="50" relative="1" as="geometry">
            <mxPoint x="849.9300000000002" y="663.0620000000001" as="sourcePoint" />
            <mxPoint x="1046.4699999999998" y="663.0620000000001" as="targetPoint" />
          </mxGeometry>
        </mxCell>
        <mxCell id="-lnSjmOPSwvC8dsKI3XS-70" value="Уведомление о подтверждении заказа" style="edgeLabel;html=1;align=center;verticalAlign=middle;resizable=0;points=[];rounded=0;labelBackgroundColor=none;" parent="-lnSjmOPSwvC8dsKI3XS-69" vertex="1" connectable="0">
          <mxGeometry x="-0.2175" relative="1" as="geometry">
            <mxPoint x="102" y="-11" as="offset" />
          </mxGeometry>
        </mxCell>
        <mxCell id="-lnSjmOPSwvC8dsKI3XS-71" value="" style="endArrow=classic;html=1;rounded=0;fillColor=#fad7ac;strokeColor=#b46504;edgeStyle=orthogonalEdgeStyle;" parent="1" edge="1">
          <mxGeometry width="50" height="50" relative="1" as="geometry">
            <mxPoint x="1173.93" y="697.06" as="sourcePoint" />
            <mxPoint x="1173.93" y="717.06" as="targetPoint" />
            <Array as="points">
              <mxPoint x="1173.93" y="697.06" />
              <mxPoint x="1200.93" y="697.06" />
              <mxPoint x="1200.93" y="717.06" />
            </Array>
          </mxGeometry>
        </mxCell>
        <mxCell id="-lnSjmOPSwvC8dsKI3XS-72" value="Готовка" style="edgeLabel;html=1;align=center;verticalAlign=middle;resizable=0;points=[];rounded=0;labelBackgroundColor=none;" parent="-lnSjmOPSwvC8dsKI3XS-71" vertex="1" connectable="0">
          <mxGeometry x="-0.2175" relative="1" as="geometry">
            <mxPoint x="16" y="10" as="offset" />
          </mxGeometry>
        </mxCell>
        <mxCell id="-lnSjmOPSwvC8dsKI3XS-73" value="" style="endArrow=classic;html=1;rounded=0;fillColor=#fad7ac;strokeColor=#b46504;entryX=1.023;entryY=0.992;entryDx=0;entryDy=0;entryPerimeter=0;dashed=1;" parent="1" target="-lnSjmOPSwvC8dsKI3XS-65" edge="1">
          <mxGeometry width="50" height="50" relative="1" as="geometry">
            <mxPoint x="1164.43" y="726.0620000000001" as="sourcePoint" />
            <mxPoint x="967.8899999999998" y="726.0619999999999" as="targetPoint" />
          </mxGeometry>
        </mxCell>
        <mxCell id="-lnSjmOPSwvC8dsKI3XS-74" value="Изменение статуса заказа на &quot;Готов&quot;" style="edgeLabel;html=1;align=center;verticalAlign=middle;resizable=0;points=[];rounded=0;labelBackgroundColor=none;" parent="-lnSjmOPSwvC8dsKI3XS-73" vertex="1" connectable="0">
          <mxGeometry x="-0.2175" relative="1" as="geometry">
            <mxPoint x="-39" y="-9" as="offset" />
          </mxGeometry>
        </mxCell>
        <mxCell id="-lnSjmOPSwvC8dsKI3XS-81" value="" style="endArrow=classic;html=1;rounded=0;fillColor=#fad7ac;strokeColor=#b46504;entryX=0.083;entryY=0.009;entryDx=0;entryDy=0;entryPerimeter=0;" parent="1" source="-lnSjmOPSwvC8dsKI3XS-79" target="-lnSjmOPSwvC8dsKI3XS-80" edge="1">
          <mxGeometry width="50" height="50" relative="1" as="geometry">
            <mxPoint x="553.4300000000002" y="788.51" as="sourcePoint" />
            <mxPoint x="958.7900000000001" y="789.662" as="targetPoint" />
          </mxGeometry>
        </mxCell>
        <mxCell id="-lnSjmOPSwvC8dsKI3XS-82" value="Уведомление о готовности заказа" style="edgeLabel;html=1;align=center;verticalAlign=middle;resizable=0;points=[];rounded=0;labelBackgroundColor=none;" parent="-lnSjmOPSwvC8dsKI3XS-81" vertex="1" connectable="0">
          <mxGeometry x="-0.2175" relative="1" as="geometry">
            <mxPoint x="89" y="-9" as="offset" />
          </mxGeometry>
        </mxCell>
        <mxCell id="-lnSjmOPSwvC8dsKI3XS-83" value="" style="endArrow=classic;html=1;rounded=0;fillColor=#fad7ac;strokeColor=#b46504;entryX=1.038;entryY=0.976;entryDx=0;entryDy=0;entryPerimeter=0;dashed=1;" parent="1" source="-lnSjmOPSwvC8dsKI3XS-80" target="-lnSjmOPSwvC8dsKI3XS-79" edge="1">
          <mxGeometry width="50" height="50" relative="1" as="geometry">
            <mxPoint x="1371.2" y="823.8420000000002" as="sourcePoint" />
            <mxPoint x="967.4299999999995" y="823.3360000000001" as="targetPoint" />
          </mxGeometry>
        </mxCell>
        <mxCell id="-lnSjmOPSwvC8dsKI3XS-84" value="Изменение статуса заказа на &quot;Принят&quot;" style="edgeLabel;html=1;align=center;verticalAlign=middle;resizable=0;points=[];rounded=0;labelBackgroundColor=none;" parent="-lnSjmOPSwvC8dsKI3XS-83" vertex="1" connectable="0">
          <mxGeometry x="-0.2175" relative="1" as="geometry">
            <mxPoint x="-84" y="-9" as="offset" />
          </mxGeometry>
        </mxCell>
        <mxCell id="-lnSjmOPSwvC8dsKI3XS-86" value="" style="endArrow=classic;html=1;rounded=0;fillColor=#fad7ac;strokeColor=#b46504;entryX=0.989;entryY=0.016;entryDx=0;entryDy=0;entryPerimeter=0;" parent="1" source="-lnSjmOPSwvC8dsKI3XS-85" target="-lnSjmOPSwvC8dsKI3XS-88" edge="1">
          <mxGeometry width="50" height="50" relative="1" as="geometry">
            <mxPoint x="1371.5" y="845.5719999999999" as="sourcePoint" />
            <mxPoint x="157" y="845.5699999999999" as="targetPoint" />
          </mxGeometry>
        </mxCell>
        <mxCell id="-lnSjmOPSwvC8dsKI3XS-87" value="Доставка заказа клиенту" style="edgeLabel;html=1;align=center;verticalAlign=middle;resizable=0;points=[];rounded=0;labelBackgroundColor=none;" parent="-lnSjmOPSwvC8dsKI3XS-86" vertex="1" connectable="0">
          <mxGeometry x="-0.2175" relative="1" as="geometry">
            <mxPoint x="-140" y="-9" as="offset" />
          </mxGeometry>
        </mxCell>
        <mxCell id="-lnSjmOPSwvC8dsKI3XS-89" value="" style="endArrow=classic;html=1;rounded=0;fillColor=#fad7ac;strokeColor=#b46504;edgeStyle=orthogonalEdgeStyle;entryX=1.057;entryY=0.835;entryDx=0;entryDy=0;entryPerimeter=0;" parent="1" target="-lnSjmOPSwvC8dsKI3XS-80" edge="1">
          <mxGeometry width="50" height="50" relative="1" as="geometry">
            <mxPoint x="1383.93" y="758.51" as="sourcePoint" />
            <mxPoint x="1381.43" y="838.01" as="targetPoint" />
            <Array as="points">
              <mxPoint x="1381.93" y="758.51" />
              <mxPoint x="1408.93" y="758.51" />
              <mxPoint x="1408.93" y="793.51" />
            </Array>
          </mxGeometry>
        </mxCell>
        <mxCell id="-lnSjmOPSwvC8dsKI3XS-90" value="Получение &lt;br&gt;заказа &lt;br&gt;с ресторана" style="edgeLabel;html=1;align=center;verticalAlign=middle;resizable=0;points=[];rounded=0;labelBackgroundColor=none;" parent="-lnSjmOPSwvC8dsKI3XS-89" vertex="1" connectable="0">
          <mxGeometry x="-0.2175" relative="1" as="geometry">
            <mxPoint x="31" y="10" as="offset" />
          </mxGeometry>
        </mxCell>
        <mxCell id="-lnSjmOPSwvC8dsKI3XS-91" value="" style="endArrow=classic;html=1;rounded=0;fillColor=#fad7ac;strokeColor=#b46504;dashed=1;exitX=0.978;exitY=0.975;exitDx=0;exitDy=0;exitPerimeter=0;" parent="1" source="-lnSjmOPSwvC8dsKI3XS-88" target="-lnSjmOPSwvC8dsKI3XS-85" edge="1">
          <mxGeometry width="50" height="50" relative="1" as="geometry">
            <mxPoint x="152.5" y="916.1379999999996" as="sourcePoint" />
            <mxPoint x="966.6199999999999" y="916.1379999999996" as="targetPoint" />
          </mxGeometry>
        </mxCell>
        <mxCell id="-lnSjmOPSwvC8dsKI3XS-92" value="Оплата, если не была совершена до этого" style="edgeLabel;html=1;align=center;verticalAlign=middle;resizable=0;points=[];rounded=0;labelBackgroundColor=none;" parent="-lnSjmOPSwvC8dsKI3XS-91" vertex="1" connectable="0">
          <mxGeometry x="-0.2175" relative="1" as="geometry">
            <mxPoint x="129" y="-8" as="offset" />
          </mxGeometry>
        </mxCell>
        <mxCell id="-lnSjmOPSwvC8dsKI3XS-93" value="" style="html=1;points=[];perimeter=orthogonalPerimeter;rounded=0;fillColor=#fad7ac;strokeColor=#b46504;" parent="1" vertex="1">
          <mxGeometry x="130" y="1009.57" width="11.75" height="54" as="geometry" />
        </mxCell>
        <mxCell id="-lnSjmOPSwvC8dsKI3XS-94" value="" style="html=1;points=[];perimeter=orthogonalPerimeter;rounded=0;fillColor=#fad7ac;strokeColor=#b46504;" parent="1" vertex="1">
          <mxGeometry x="333" y="1009.5699999999999" width="13.5" height="54" as="geometry" />
        </mxCell>
        <mxCell id="-lnSjmOPSwvC8dsKI3XS-95" value="" style="endArrow=classic;html=1;rounded=0;fillColor=#fad7ac;strokeColor=#b46504;entryX=-0.001;entryY=0.008;entryDx=0;entryDy=0;entryPerimeter=0;" parent="1" source="-lnSjmOPSwvC8dsKI3XS-93" target="-lnSjmOPSwvC8dsKI3XS-94" edge="1">
          <mxGeometry width="50" height="50" relative="1" as="geometry">
            <mxPoint x="141.32999999999993" y="1022.5719999999999" as="sourcePoint" />
            <mxPoint x="333" y="1023.4399999999998" as="targetPoint" />
          </mxGeometry>
        </mxCell>
        <mxCell id="-lnSjmOPSwvC8dsKI3XS-96" value="Возможность оставить отзыв" style="edgeLabel;html=1;align=center;verticalAlign=middle;resizable=0;points=[];rounded=0;labelBackgroundColor=none;" parent="-lnSjmOPSwvC8dsKI3XS-95" vertex="1" connectable="0">
          <mxGeometry x="-0.2175" relative="1" as="geometry">
            <mxPoint x="18" y="-6" as="offset" />
          </mxGeometry>
        </mxCell>
        <mxCell id="-lnSjmOPSwvC8dsKI3XS-97" value="" style="endArrow=classic;html=1;rounded=0;fillColor=#fad7ac;strokeColor=#b46504;edgeStyle=orthogonalEdgeStyle;entryX=1.047;entryY=0.835;entryDx=0;entryDy=0;entryPerimeter=0;" parent="1" source="-lnSjmOPSwvC8dsKI3XS-94" target="-lnSjmOPSwvC8dsKI3XS-94" edge="1">
          <mxGeometry width="50" height="50" relative="1" as="geometry">
            <mxPoint x="344.75" y="1031.57" as="sourcePoint" />
            <mxPoint x="345.28999999999996" y="1094.6599999999999" as="targetPoint" />
            <Array as="points">
              <mxPoint x="370.5" y="1019.5699999999999" />
              <mxPoint x="370.5" y="1054.57" />
            </Array>
          </mxGeometry>
        </mxCell>
        <mxCell id="-lnSjmOPSwvC8dsKI3XS-98" value="Занесение &lt;br&gt;отзыва" style="edgeLabel;html=1;align=center;verticalAlign=middle;resizable=0;points=[];rounded=0;labelBackgroundColor=none;" parent="-lnSjmOPSwvC8dsKI3XS-97" vertex="1" connectable="0">
          <mxGeometry x="-0.2175" relative="1" as="geometry">
            <mxPoint x="26" y="10" as="offset" />
          </mxGeometry>
        </mxCell>
        <mxCell id="-lnSjmOPSwvC8dsKI3XS-99" value="" style="endArrow=classic;html=1;rounded=0;fillColor=#fad7ac;strokeColor=#b46504;dashed=1;entryX=1.065;entryY=0.999;entryDx=0;entryDy=0;entryPerimeter=0;" parent="1" source="-lnSjmOPSwvC8dsKI3XS-94" target="-lnSjmOPSwvC8dsKI3XS-93" edge="1">
          <mxGeometry width="50" height="50" relative="1" as="geometry">
            <mxPoint x="333" y="1076.1699999999998" as="sourcePoint" />
            <mxPoint x="140.5" y="1076.1699999999998" as="targetPoint" />
          </mxGeometry>
        </mxCell>
        <mxCell id="-lnSjmOPSwvC8dsKI3XS-100" value="Уведомление о публикации отзыва" style="edgeLabel;html=1;align=center;verticalAlign=middle;resizable=0;points=[];rounded=0;labelBackgroundColor=none;" parent="-lnSjmOPSwvC8dsKI3XS-99" vertex="1" connectable="0">
          <mxGeometry x="-0.2175" relative="1" as="geometry">
            <mxPoint x="-20" y="-9" as="offset" />
          </mxGeometry>
        </mxCell>
        <mxCell id="-lnSjmOPSwvC8dsKI3XS-105" value="" style="html=1;points=[];perimeter=orthogonalPerimeter;rounded=0;fillColor=#fad7ac;strokeColor=#b46504;" parent="1" vertex="1">
          <mxGeometry x="747.25" y="956" width="10" height="48" as="geometry" />
        </mxCell>
        <mxCell id="-lnSjmOPSwvC8dsKI3XS-106" value="" style="html=1;points=[];perimeter=orthogonalPerimeter;rounded=0;fillColor=#fad7ac;strokeColor=#b46504;" parent="1" vertex="1">
          <mxGeometry x="540.25" y="956" width="10.5" height="48" as="geometry" />
        </mxCell>
        <mxCell id="-lnSjmOPSwvC8dsKI3XS-107" value="" style="endArrow=classic;html=1;rounded=0;fillColor=#fad7ac;strokeColor=#b46504;dashed=1;entryX=1.039;entryY=0.996;entryDx=0;entryDy=0;entryPerimeter=0;" parent="1" source="-lnSjmOPSwvC8dsKI3XS-105" target="-lnSjmOPSwvC8dsKI3XS-106" edge="1">
          <mxGeometry width="50" height="50" relative="1" as="geometry">
            <mxPoint x="749.93" y="997.5740000000001" as="sourcePoint" />
            <mxPoint x="553.43" y="997.5740000000001" as="targetPoint" />
          </mxGeometry>
        </mxCell>
        <mxCell id="-lnSjmOPSwvC8dsKI3XS-108" value="Удаление заказа из списка" style="edgeLabel;html=1;align=center;verticalAlign=middle;resizable=0;points=[];rounded=0;labelBackgroundColor=none;" parent="-lnSjmOPSwvC8dsKI3XS-107" vertex="1" connectable="0">
          <mxGeometry x="-0.2175" relative="1" as="geometry">
            <mxPoint x="-12" y="-6" as="offset" />
          </mxGeometry>
        </mxCell>
        <mxCell id="-lnSjmOPSwvC8dsKI3XS-109" value="" style="endArrow=classic;html=1;rounded=0;fillColor=#fad7ac;strokeColor=#b46504;entryX=-0.022;entryY=0;entryDx=0;entryDy=0;entryPerimeter=0;" parent="1" source="-lnSjmOPSwvC8dsKI3XS-106" target="-lnSjmOPSwvC8dsKI3XS-105" edge="1">
          <mxGeometry width="50" height="50" relative="1" as="geometry">
            <mxPoint x="553.43" y="979.5720000000001" as="sourcePoint" />
            <mxPoint x="744.6665000000002" y="979.5720000000001" as="targetPoint" />
          </mxGeometry>
        </mxCell>
        <mxCell id="-lnSjmOPSwvC8dsKI3XS-110" value="Уведомление о доставки" style="edgeLabel;html=1;align=center;verticalAlign=middle;resizable=0;points=[];rounded=0;labelBackgroundColor=none;" parent="-lnSjmOPSwvC8dsKI3XS-109" vertex="1" connectable="0">
          <mxGeometry x="-0.2175" relative="1" as="geometry">
            <mxPoint x="18" y="-6" as="offset" />
          </mxGeometry>
        </mxCell>
        <mxCell id="-lnSjmOPSwvC8dsKI3XS-111" value="" style="shape=umlDestroy;whiteSpace=wrap;html=1;strokeWidth=3;labelBackgroundColor=default;rounded=0;fillColor=#fad7ac;strokeColor=#b46504;" parent="1" vertex="1">
          <mxGeometry x="110" y="1090" width="51.75" height="60" as="geometry" />
        </mxCell>
        <mxCell id="-lnSjmOPSwvC8dsKI3XS-113" value="" style="endArrow=classic;html=1;rounded=0;fillColor=#fad7ac;strokeColor=#b46504;exitX=0.006;exitY=0.005;exitDx=0;exitDy=0;exitPerimeter=0;" parent="1" source="-lnSjmOPSwvC8dsKI3XS-115" target="-lnSjmOPSwvC8dsKI3XS-112" edge="1">
          <mxGeometry width="50" height="50" relative="1" as="geometry">
            <mxPoint x="1377.68" y="946.8599999999999" as="sourcePoint" />
            <mxPoint x="1175.18" y="948.972" as="targetPoint" />
          </mxGeometry>
        </mxCell>
        <mxCell id="-lnSjmOPSwvC8dsKI3XS-114" value="Изменение статуса заказа на &quot;Доставлен&quot;" style="edgeLabel;html=1;align=center;verticalAlign=middle;resizable=0;points=[];rounded=0;labelBackgroundColor=none;" parent="-lnSjmOPSwvC8dsKI3XS-113" vertex="1" connectable="0">
          <mxGeometry x="-0.2175" relative="1" as="geometry">
            <mxPoint x="-21" y="-9" as="offset" />
          </mxGeometry>
        </mxCell>
        <mxCell id="-lnSjmOPSwvC8dsKI3XS-115" value="" style="html=1;points=[];perimeter=orthogonalPerimeter;rounded=0;fillColor=#fad7ac;strokeColor=#b46504;" parent="1" vertex="1">
          <mxGeometry x="1372.18" y="908.8599999999999" width="10" height="27" as="geometry" />
        </mxCell>
        <mxCell id="-lnSjmOPSwvC8dsKI3XS-116" value="" style="endArrow=none;dashed=1;html=1;strokeWidth=1;rounded=0;startArrow=none;fillColor=#ffe6cc;strokeColor=#B46504;" parent="1" target="-lnSjmOPSwvC8dsKI3XS-115" edge="1">
          <mxGeometry width="50" height="50" relative="1" as="geometry">
            <mxPoint x="1376" y="1140" as="sourcePoint" />
            <mxPoint x="1371.2405926622764" y="-2" as="targetPoint" />
            <Array as="points">
              <mxPoint x="1376" y="990" />
            </Array>
          </mxGeometry>
        </mxCell>
        <mxCell id="sTfGjPoin-vk9VNCby7z-1" value="" style="shape=umlActor;verticalLabelPosition=bottom;verticalAlign=top;html=1;rounded=0;fillColor=#fad7ac;strokeColor=#b46504;" parent="1" vertex="1">
          <mxGeometry x="119.5" width="30" height="60" as="geometry" />
        </mxCell>
        <mxCell id="sTfGjPoin-vk9VNCby7z-2" value="Каталог" style="html=1;rounded=0;fillColor=#fad7ac;strokeColor=#b46504;" parent="1" vertex="1">
          <mxGeometry x="270" y="60" width="135" height="40" as="geometry" />
        </mxCell>
        <mxCell id="sTfGjPoin-vk9VNCby7z-12" value="&lt;span style=&quot;color: rgba(0, 0, 0, 0); font-family: monospace; font-size: 0px; text-align: start;&quot;&gt;%3CmxGraphModel%3E%3Croot%3E%3CmxCell%20id%3D%220%22%2F%3E%3CmxCell%20id%3D%221%22%20parent%3D%220%22%2F%3E%3CmxCell%20id%3D%222%22%20value%3D%22%22%20style%3D%22html%3D1%3Bpoints%3D%5B%5D%3Bperimeter%3DorthogonalPerimeter%3B%22%20vertex%3D%221%22%20parent%3D%221%22%3E%3CmxGeometry%20x%3D%2275%22%20y%3D%22280%22%20width%3D%2210%22%20height%3D%2240%22%20as%3D%22geometry%22%2F%3E%3C%2FmxCell%3E%3C%2Froot%3E%3C%2FmxGraphModel%3E&lt;/span&gt;" style="html=1;points=[];perimeter=orthogonalPerimeter;rounded=0;fillColor=#fad7ac;strokeColor=#b46504;" parent="1" vertex="1">
          <mxGeometry x="128.25" y="126" width="10" height="54" as="geometry" />
        </mxCell>
        <mxCell id="sTfGjPoin-vk9VNCby7z-21" value="" style="html=1;points=[];perimeter=orthogonalPerimeter;rounded=0;fillColor=#fad7ac;strokeColor=#b46504;" parent="1" vertex="1">
          <mxGeometry x="747.25" y="398" width="10" height="39.94" as="geometry" />
        </mxCell>
        <mxCell id="sTfGjPoin-vk9VNCby7z-22" value="" style="html=1;points=[];perimeter=orthogonalPerimeter;rounded=0;fillColor=#fad7ac;strokeColor=#b46504;" parent="1" vertex="1">
          <mxGeometry x="540.25" y="396" width="10" height="41.94" as="geometry" />
        </mxCell>
        <mxCell id="sTfGjPoin-vk9VNCby7z-31" value="" style="html=1;points=[];perimeter=orthogonalPerimeter;rounded=0;fillColor=#fad7ac;strokeColor=#b46504;" parent="1" vertex="1">
          <mxGeometry x="540.25" y="458.13" width="10" height="19" as="geometry" />
        </mxCell>
        <mxCell id="sTfGjPoin-vk9VNCby7z-32" value="" style="html=1;points=[];perimeter=orthogonalPerimeter;rounded=0;fillColor=#fad7ac;strokeColor=#b46504;" parent="1" vertex="1">
          <mxGeometry x="953.5" y="458.13" width="10" height="41.94" as="geometry" />
        </mxCell>
        <mxCell id="sTfGjPoin-vk9VNCby7z-33" value="" style="html=1;points=[];perimeter=orthogonalPerimeter;rounded=0;fillColor=#fad7ac;strokeColor=#b46504;" parent="1" vertex="1">
          <mxGeometry x="953.5" y="530.07" width="10" height="20" as="geometry" />
        </mxCell>
        <mxCell id="sTfGjPoin-vk9VNCby7z-36" value="" style="html=1;points=[];perimeter=orthogonalPerimeter;rounded=0;fillColor=#fad7ac;strokeColor=#b46504;" parent="1" vertex="1">
          <mxGeometry x="540.25" y="557.06" width="10" height="42.94" as="geometry" />
        </mxCell>
        <mxCell id="8JBFVGu5TRE_8UB1eVMB-1" value="" style="html=1;points=[];perimeter=orthogonalPerimeter;rounded=0;fillColor=#fad7ac;strokeColor=#b46504;" parent="1" vertex="1">
          <mxGeometry x="953.5" y="557.06" width="10" height="20" as="geometry" />
        </mxCell>
        <mxCell id="8JBFVGu5TRE_8UB1eVMB-3" value="" style="endArrow=none;dashed=1;html=1;strokeWidth=1;rounded=0;startArrow=none;fillColor=#fad7ac;strokeColor=#b46504;" parent="1" target="8JBFVGu5TRE_8UB1eVMB-1" edge="1">
          <mxGeometry width="50" height="50" relative="1" as="geometry">
            <mxPoint x="958" y="1140" as="sourcePoint" />
            <mxPoint x="957.2594073377234" y="-2" as="targetPoint" />
          </mxGeometry>
        </mxCell>
        <mxCell id="-lnSjmOPSwvC8dsKI3XS-79" value="" style="html=1;points=[];perimeter=orthogonalPerimeter;rounded=0;fillColor=#fad7ac;strokeColor=#b46504;" parent="1" vertex="1">
          <mxGeometry x="540.25" y="748.51" width="10" height="54" as="geometry" />
        </mxCell>
        <mxCell id="-lnSjmOPSwvC8dsKI3XS-80" value="" style="html=1;points=[];perimeter=orthogonalPerimeter;rounded=0;fillColor=#fad7ac;strokeColor=#b46504;" parent="1" vertex="1">
          <mxGeometry x="1371.43" y="748.51" width="10" height="54" as="geometry" />
        </mxCell>
        <mxCell id="-lnSjmOPSwvC8dsKI3XS-85" value="" style="html=1;points=[];perimeter=orthogonalPerimeter;rounded=0;fillColor=#fad7ac;strokeColor=#b46504;" parent="1" vertex="1">
          <mxGeometry x="1371.43" y="822.5699999999999" width="10" height="54" as="geometry" />
        </mxCell>
        <mxCell id="8JBFVGu5TRE_8UB1eVMB-8" value="" style="endArrow=none;dashed=1;html=1;strokeWidth=1;rounded=0;startArrow=none;fillColor=#fad7ac;strokeColor=#b46504;" parent="1" source="-lnSjmOPSwvC8dsKI3XS-115" target="-lnSjmOPSwvC8dsKI3XS-85" edge="1">
          <mxGeometry width="50" height="50" relative="1" as="geometry">
            <mxPoint x="1376.43" y="971.06" as="sourcePoint" />
            <mxPoint x="1376.43" y="821.0600000000002" as="targetPoint" />
          </mxGeometry>
        </mxCell>
        <mxCell id="-lnSjmOPSwvC8dsKI3XS-88" value="" style="html=1;points=[];perimeter=orthogonalPerimeter;rounded=0;fillColor=#fad7ac;strokeColor=#b46504;" parent="1" vertex="1">
          <mxGeometry x="128.25" y="822.5699999999999" width="13.5" height="54" as="geometry" />
        </mxCell>
        <mxCell id="-lnSjmOPSwvC8dsKI3XS-112" value="" style="html=1;points=[];perimeter=orthogonalPerimeter;rounded=0;fillColor=#fad7ac;strokeColor=#b46504;" parent="1" vertex="1">
          <mxGeometry x="540.25" y="908.8599999999999" width="10" height="27" as="geometry" />
        </mxCell>
        <mxCell id="J6mQ58Ihwh4iGwgKDfFn-1" value="" style="html=1;points=[];perimeter=orthogonalPerimeter;rounded=0;fillColor=#fad7ac;strokeColor=#b46504;" vertex="1" parent="1">
          <mxGeometry x="332.93" y="210.65" width="10" height="49.35" as="geometry" />
        </mxCell>
        <mxCell id="J6mQ58Ihwh4iGwgKDfFn-2" value="" style="endArrow=classic;html=1;rounded=0;fillColor=#fad7ac;strokeColor=#b46504;" edge="1" parent="1">
          <mxGeometry width="50" height="50" relative="1" as="geometry">
            <mxPoint x="139.93" y="210.65" as="sourcePoint" />
            <mxPoint x="333.43" y="210.65" as="targetPoint" />
          </mxGeometry>
        </mxCell>
        <mxCell id="J6mQ58Ihwh4iGwgKDfFn-3" value="Выбор товаров в корзину" style="edgeLabel;html=1;align=center;verticalAlign=middle;resizable=0;points=[];rounded=0;labelBackgroundColor=none;" vertex="1" connectable="0" parent="J6mQ58Ihwh4iGwgKDfFn-2">
          <mxGeometry x="-0.2175" relative="1" as="geometry">
            <mxPoint x="19" y="-11" as="offset" />
          </mxGeometry>
        </mxCell>
        <mxCell id="J6mQ58Ihwh4iGwgKDfFn-4" value="" style="endArrow=classic;html=1;rounded=0;fillColor=#fad7ac;strokeColor=#b46504;dashed=1;exitX=-0.06;exitY=0.989;exitDx=0;exitDy=0;exitPerimeter=0;" edge="1" parent="1" source="J6mQ58Ihwh4iGwgKDfFn-1" target="J6mQ58Ihwh4iGwgKDfFn-8">
          <mxGeometry width="50" height="50" relative="1" as="geometry">
            <mxPoint x="332.43" y="290.82000000000005" as="sourcePoint" />
            <mxPoint x="139.93" y="290.82000000000005" as="targetPoint" />
          </mxGeometry>
        </mxCell>
        <mxCell id="J6mQ58Ihwh4iGwgKDfFn-5" value="Уведомление о добавлении &lt;br&gt;товаров в корзину" style="edgeLabel;html=1;align=center;verticalAlign=middle;resizable=0;points=[];rounded=0;labelBackgroundColor=none;" vertex="1" connectable="0" parent="J6mQ58Ihwh4iGwgKDfFn-4">
          <mxGeometry x="-0.2175" relative="1" as="geometry">
            <mxPoint x="-19" y="-16" as="offset" />
          </mxGeometry>
        </mxCell>
        <mxCell id="J6mQ58Ihwh4iGwgKDfFn-6" value="" style="endArrow=classic;html=1;rounded=0;fillColor=#fad7ac;strokeColor=#b46504;edgeStyle=orthogonalEdgeStyle;entryX=1.054;entryY=0.89;entryDx=0;entryDy=0;entryPerimeter=0;" edge="1" parent="1" source="J6mQ58Ihwh4iGwgKDfFn-1" target="J6mQ58Ihwh4iGwgKDfFn-1">
          <mxGeometry width="50" height="50" relative="1" as="geometry">
            <mxPoint x="150.25999999999993" y="117.82999999999996" as="sourcePoint" />
            <mxPoint x="351.43" y="282.65" as="targetPoint" />
            <Array as="points">
              <mxPoint x="369" y="220" />
              <mxPoint x="369" y="255" />
              <mxPoint x="344" y="255" />
            </Array>
          </mxGeometry>
        </mxCell>
        <mxCell id="J6mQ58Ihwh4iGwgKDfFn-7" value="Добавление &lt;br&gt;товара &lt;br&gt;в корзину" style="edgeLabel;html=1;align=center;verticalAlign=middle;resizable=0;points=[];rounded=0;labelBackgroundColor=none;" vertex="1" connectable="0" parent="J6mQ58Ihwh4iGwgKDfFn-6">
          <mxGeometry x="-0.2175" relative="1" as="geometry">
            <mxPoint x="36" y="11" as="offset" />
          </mxGeometry>
        </mxCell>
        <mxCell id="J6mQ58Ihwh4iGwgKDfFn-8" value="&lt;span style=&quot;color: rgba(0, 0, 0, 0); font-family: monospace; font-size: 0px; text-align: start;&quot;&gt;%3CmxGraphModel%3E%3Croot%3E%3CmxCell%20id%3D%220%22%2F%3E%3CmxCell%20id%3D%221%22%20parent%3D%220%22%2F%3E%3CmxCell%20id%3D%222%22%20value%3D%22%22%20style%3D%22html%3D1%3Bpoints%3D%5B%5D%3Bperimeter%3DorthogonalPerimeter%3B%22%20vertex%3D%221%22%20parent%3D%221%22%3E%3CmxGeometry%20x%3D%2275%22%20y%3D%22280%22%20width%3D%2210%22%20height%3D%2240%22%20as%3D%22geometry%22%2F%3E%3C%2FmxCell%3E%3C%2Froot%3E%3C%2FmxGraphModel%3E&lt;/span&gt;" style="html=1;points=[];perimeter=orthogonalPerimeter;rounded=0;fillColor=#fad7ac;strokeColor=#b46504;" vertex="1" parent="1">
          <mxGeometry x="129.93" y="210.65" width="10" height="49.35" as="geometry" />
        </mxCell>
        <mxCell id="J6mQ58Ihwh4iGwgKDfFn-10" value="" style="html=1;points=[];perimeter=orthogonalPerimeter;rounded=0;fillColor=#fad7ac;strokeColor=#b46504;" vertex="1" parent="1">
          <mxGeometry x="336.18" y="280" width="10" height="50" as="geometry" />
        </mxCell>
        <mxCell id="J6mQ58Ihwh4iGwgKDfFn-11" value="" style="endArrow=classic;html=1;rounded=0;fillColor=#fad7ac;strokeColor=#b46504;entryX=0.062;entryY=0.024;entryDx=0;entryDy=0;entryPerimeter=0;" edge="1" parent="1" source="J6mQ58Ihwh4iGwgKDfFn-17" target="J6mQ58Ihwh4iGwgKDfFn-10">
          <mxGeometry width="50" height="50" relative="1" as="geometry">
            <mxPoint x="143.18000000000006" y="270" as="sourcePoint" />
            <mxPoint x="336.68000000000006" y="270" as="targetPoint" />
          </mxGeometry>
        </mxCell>
        <mxCell id="J6mQ58Ihwh4iGwgKDfFn-12" value="Просмотр корзины" style="edgeLabel;html=1;align=center;verticalAlign=middle;resizable=0;points=[];rounded=0;labelBackgroundColor=none;" vertex="1" connectable="0" parent="J6mQ58Ihwh4iGwgKDfFn-11">
          <mxGeometry x="-0.2175" relative="1" as="geometry">
            <mxPoint x="23" y="-7" as="offset" />
          </mxGeometry>
        </mxCell>
        <mxCell id="J6mQ58Ihwh4iGwgKDfFn-13" value="" style="endArrow=classic;html=1;rounded=0;fillColor=#fad7ac;strokeColor=#b46504;dashed=1;exitX=-0.06;exitY=0.989;exitDx=0;exitDy=0;exitPerimeter=0;" edge="1" parent="1" source="J6mQ58Ihwh4iGwgKDfFn-10" target="J6mQ58Ihwh4iGwgKDfFn-17">
          <mxGeometry width="50" height="50" relative="1" as="geometry">
            <mxPoint x="335.68" y="350.1700000000001" as="sourcePoint" />
            <mxPoint x="143.18" y="350.1700000000001" as="targetPoint" />
          </mxGeometry>
        </mxCell>
        <mxCell id="J6mQ58Ihwh4iGwgKDfFn-14" value="Вывод товаров, &lt;br&gt;находящихся в корзине" style="edgeLabel;html=1;align=center;verticalAlign=middle;resizable=0;points=[];rounded=0;labelBackgroundColor=none;" vertex="1" connectable="0" parent="J6mQ58Ihwh4iGwgKDfFn-13">
          <mxGeometry x="-0.2175" relative="1" as="geometry">
            <mxPoint x="-19" y="-16" as="offset" />
          </mxGeometry>
        </mxCell>
        <mxCell id="J6mQ58Ihwh4iGwgKDfFn-17" value="&lt;span style=&quot;color: rgba(0, 0, 0, 0); font-family: monospace; font-size: 0px; text-align: start;&quot;&gt;%3CmxGraphModel%3E%3Croot%3E%3CmxCell%20id%3D%220%22%2F%3E%3CmxCell%20id%3D%221%22%20parent%3D%220%22%2F%3E%3CmxCell%20id%3D%222%22%20value%3D%22%22%20style%3D%22html%3D1%3Bpoints%3D%5B%5D%3Bperimeter%3DorthogonalPerimeter%3B%22%20vertex%3D%221%22%20parent%3D%221%22%3E%3CmxGeometry%20x%3D%2275%22%20y%3D%22280%22%20width%3D%2210%22%20height%3D%2240%22%20as%3D%22geometry%22%2F%3E%3C%2FmxCell%3E%3C%2Froot%3E%3C%2FmxGraphModel%3E&lt;/span&gt;" style="html=1;points=[];perimeter=orthogonalPerimeter;rounded=0;fillColor=#fad7ac;strokeColor=#b46504;" vertex="1" parent="1">
          <mxGeometry x="130" y="280" width="10" height="50" as="geometry" />
        </mxCell>
      </root>
    </mxGraphModel>
  </diagram>
</mxfile>
